<svg xmlns="http://www.w3.org/2000/svg" width="900" height="607" viewBox="0 0 900 607" role="img" aria-label="Training Effectiveness item responses">
<rect width="900" height="607" fill="white"/>
<text x="28" y="40" font-family="Arial" font-size="24" font-weight="bold" fill="#172c3d">Training Effectiveness item responses</text>
<text x="28" y="68" font-family="Arial" font-size="15" fill="#486171">Percent of 102 respondents in each response category</text>
<text x="35" y="132" font-family="Arial" font-size="17" fill="#172c3d">Q24</text>
<rect x="125.00" y="105" width="25.88" height="38" fill="#b95d58"/>
<rect x="150.88" y="105" width="32.35" height="38" fill="#d3d9dc"/>
<rect x="183.24" y="105" width="310.59" height="38" fill="#74a9a4"/>
<text x="338.53" y="130" text-anchor="middle" font-family="Arial" font-size="14" font-weight="bold" fill="white">48</text>
<rect x="493.82" y="105" width="291.18" height="38" fill="#2d766e"/>
<text x="639.41" y="130" text-anchor="middle" font-family="Arial" font-size="14" font-weight="bold" fill="white">45</text>
<text x="35" y="192" font-family="Arial" font-size="17" fill="#172c3d">Q25</text>
<rect x="125.00" y="165" width="19.41" height="38" fill="#b95d58"/>
<rect x="144.41" y="165" width="6.47" height="38" fill="#db9b74"/>
<rect x="150.88" y="165" width="58.24" height="38" fill="#d3d9dc"/>
<text x="180.00" y="190" text-anchor="middle" font-family="Arial" font-size="14" font-weight="bold" fill="white">9</text>
<rect x="209.12" y="165" width="258.82" height="38" fill="#74a9a4"/>
<text x="338.53" y="190" text-anchor="middle" font-family="Arial" font-size="14" font-weight="bold" fill="white">40</text>
<rect x="467.94" y="165" width="317.06" height="38" fill="#2d766e"/>
<text x="626.47" y="190" text-anchor="middle" font-family="Arial" font-size="14" font-weight="bold" fill="white">49</text>
<text x="35" y="252" font-family="Arial" font-size="17" fill="#172c3d">Q26</text>
<rect x="125.00" y="225" width="19.41" height="38" fill="#b95d58"/>
<rect x="144.41" y="225" width="64.71" height="38" fill="#d3d9dc"/>
<text x="176.76" y="250" text-anchor="middle" font-family="Arial" font-size="14" font-weight="bold" fill="white">10</text>
<rect x="209.12" y="225" width="291.18" height="38" fill="#74a9a4"/>
<text x="354.71" y="250" text-anchor="middle" font-family="Arial" font-size="14" font-weight="bold" fill="white">45</text>
<rect x="500.29" y="225" width="284.71" height="38" fill="#2d766e"/>
<text x="642.65" y="250" text-anchor="middle" font-family="Arial" font-size="14" font-weight="bold" fill="white">44</text>
<text x="35" y="312" font-family="Arial" font-size="17" fill="#172c3d">Q27</text>
<rect x="125.00" y="285" width="25.88" height="38" fill="#b95d58"/>
<rect x="150.88" y="285" width="58.24" height="38" fill="#d3d9dc"/>
<text x="180.00" y="310" text-anchor="middle" font-family="Arial" font-size="14" font-weight="bold" fill="white">9</text>
<rect x="209.12" y="285" width="278.24" height="38" fill="#74a9a4"/>
<text x="348.24" y="310" text-anchor="middle" font-family="Arial" font-size="14" font-weight="bold" fill="white">43</text>
<rect x="487.35" y="285" width="297.65" height="38" fill="#2d766e"/>
<text x="636.18" y="310" text-anchor="middle" font-family="Arial" font-size="14" font-weight="bold" fill="white">46</text>
<text x="35" y="372" font-family="Arial" font-size="17" fill="#172c3d">Q28</text>
<rect x="125.00" y="345" width="19.41" height="38" fill="#b95d58"/>
<rect x="144.41" y="345" width="12.94" height="38" fill="#db9b74"/>
<rect x="157.35" y="345" width="51.76" height="38" fill="#d3d9dc"/>
<text x="183.24" y="370" text-anchor="middle" font-family="Arial" font-size="14" font-weight="bold" fill="white">8</text>
<rect x="209.12" y="345" width="278.24" height="38" fill="#74a9a4"/>
<text x="348.24" y="370" text-anchor="middle" font-family="Arial" font-size="14" font-weight="bold" fill="white">43</text>
<rect x="487.35" y="345" width="297.65" height="38" fill="#2d766e"/>
<text x="636.18" y="370" text-anchor="middle" font-family="Arial" font-size="14" font-weight="bold" fill="white">46</text>
<text x="35" y="432" font-family="Arial" font-size="17" fill="#172c3d">Q29</text>
<rect x="125.00" y="405" width="25.88" height="38" fill="#b95d58"/>
<rect x="150.88" y="405" width="6.47" height="38" fill="#db9b74"/>
<rect x="157.35" y="405" width="58.24" height="38" fill="#d3d9dc"/>
<text x="186.47" y="430" text-anchor="middle" font-family="Arial" font-size="14" font-weight="bold" fill="white">9</text>
<rect x="215.59" y="405" width="310.59" height="38" fill="#74a9a4"/>
<text x="370.88" y="430" text-anchor="middle" font-family="Arial" font-size="14" font-weight="bold" fill="white">48</text>
<rect x="526.18" y="405" width="258.82" height="38" fill="#2d766e"/>
<text x="655.59" y="430" text-anchor="middle" font-family="Arial" font-size="14" font-weight="bold" fill="white">40</text>
<text x="35" y="492" font-family="Arial" font-size="17" fill="#172c3d">Q30</text>
<rect x="125.00" y="465" width="19.41" height="38" fill="#b95d58"/>
<rect x="144.41" y="465" width="12.94" height="38" fill="#db9b74"/>
<rect x="157.35" y="465" width="64.71" height="38" fill="#d3d9dc"/>
<text x="189.71" y="490" text-anchor="middle" font-family="Arial" font-size="14" font-weight="bold" fill="white">10</text>
<rect x="222.06" y="465" width="207.06" height="38" fill="#74a9a4"/>
<text x="325.59" y="490" text-anchor="middle" font-family="Arial" font-size="14" font-weight="bold" fill="white">32</text>
<rect x="429.12" y="465" width="355.88" height="38" fill="#2d766e"/>
<text x="607.06" y="490" text-anchor="middle" font-family="Arial" font-size="14" font-weight="bold" fill="white">55</text>
<rect x="40" y="557" width="13" height="13" fill="#b95d58"/>
<text x="58" y="569" font-family="Arial" font-size="12" fill="#172c3d">1 Strongly disagree</text>
<rect x="205" y="557" width="13" height="13" fill="#db9b74"/>
<text x="223" y="569" font-family="Arial" font-size="12" fill="#172c3d">2 Disagree</text>
<rect x="370" y="557" width="13" height="13" fill="#d3d9dc"/>
<text x="388" y="569" font-family="Arial" font-size="12" fill="#172c3d">3 Neutral</text>
<rect x="535" y="557" width="13" height="13" fill="#74a9a4"/>
<text x="553" y="569" font-family="Arial" font-size="12" fill="#172c3d">4 Agree</text>
<rect x="700" y="557" width="13" height="13" fill="#2d766e"/>
<text x="718" y="569" font-family="Arial" font-size="12" fill="#172c3d">5 Strongly agree</text>
</svg>
