<svg xmlns="http://www.w3.org/2000/svg" width="650" height="360"><style>text{font-family:Arial;font-size:14px}</style><rect width="100%" height="100%" fill="white"/><text x="325" y="28" text-anchor="middle" style="font-size:20px;font-weight:bold">Correlation Matrix (N = 103)</text><text x="10" y="85" >Hybrid Learning</text><text x="185" y="55" text-anchor="middle">1</text><text x="10" y="133" >Trainer Competence</text><text x="295" y="55" text-anchor="middle">2</text><text x="10" y="181" >Learner Engagement</text><text x="405" y="55" text-anchor="middle">3</text><text x="10" y="229" >Training Effectiveness</text><text x="515" y="55" text-anchor="middle">4</text><rect x="130" y="65" width="108" height="46" fill="rgb(51,91,255)"/><text x="184" y="93" text-anchor="middle">1.000</text><rect x="240" y="65" width="108" height="46" fill="rgb(76,116,255)"/><text x="294" y="93" text-anchor="middle">0.818</text><rect x="350" y="65" width="108" height="46" fill="rgb(91,131,255)"/><text x="404" y="93" text-anchor="middle">0.713</text><rect x="460" y="65" width="108" height="46" fill="rgb(98,138,255)"/><text x="514" y="93" text-anchor="middle">0.660</text><rect x="130" y="113" width="108" height="46" fill="rgb(76,116,255)"/><text x="184" y="141" text-anchor="middle">0.818</text><rect x="240" y="113" width="108" height="46" fill="rgb(51,91,255)"/><text x="294" y="141" text-anchor="middle">1.000</text><rect x="350" y="113" width="108" height="46" fill="rgb(89,129,255)"/><text x="404" y="141" text-anchor="middle">0.725</text><rect x="460" y="113" width="108" height="46" fill="rgb(100,140,255)"/><text x="514" y="141" text-anchor="middle">0.647</text><rect x="130" y="161" width="108" height="46" fill="rgb(91,131,255)"/><text x="184" y="189" text-anchor="middle">0.713</text><rect x="240" y="161" width="108" height="46" fill="rgb(89,129,255)"/><text x="294" y="189" text-anchor="middle">0.725</text><rect x="350" y="161" width="108" height="46" fill="rgb(51,91,255)"/><text x="404" y="189" text-anchor="middle">1.000</text><rect x="460" y="161" width="108" height="46" fill="rgb(83,123,255)"/><text x="514" y="189" text-anchor="middle">0.765</text><rect x="130" y="209" width="108" height="46" fill="rgb(98,138,255)"/><text x="184" y="237" text-anchor="middle">0.660</text><rect x="240" y="209" width="108" height="46" fill="rgb(100,140,255)"/><text x="294" y="237" text-anchor="middle">0.647</text><rect x="350" y="209" width="108" height="46" fill="rgb(83,123,255)"/><text x="404" y="237" text-anchor="middle">0.765</text><rect x="460" y="209" width="108" height="46" fill="rgb(51,91,255)"/><text x="514" y="237" text-anchor="middle">1.000</text></svg>