<svg xmlns="http://www.w3.org/2000/svg" width="1000" height="640" viewBox="0 0 1000 640">
<rect width="100%" height="100%" fill="white"/>
<style>text{font-family:Arial,sans-serif;fill:#1f1f1f}.title{font-size:22px;font-weight:700}.sub{font-size:14px;fill:#595959}.axis{font-size:14px}.label{font-size:14px}.value{font-size:15px;font-weight:700;fill:#17365d}.source{font-size:12px;fill:#595959}</style>
<text class="title" x="95" y="36">Figure 4.1: Age Group of Respondents</text>
<text class="sub" x="95" y="62">Frequency distribution</text>
<line x1="95" y1="495.0" x2="955" y2="495.0" stroke="#d9e2f3" stroke-width="1"/>
<text class="axis" x="80" y="500.0" text-anchor="end">0</text>
<line x1="95" y1="461.7" x2="955" y2="461.7" stroke="#d9e2f3" stroke-width="1"/>
<text class="axis" x="80" y="466.7" text-anchor="end">5</text>
<line x1="95" y1="428.3" x2="955" y2="428.3" stroke="#d9e2f3" stroke-width="1"/>
<text class="axis" x="80" y="433.3" text-anchor="end">10</text>
<line x1="95" y1="395.0" x2="955" y2="395.0" stroke="#d9e2f3" stroke-width="1"/>
<text class="axis" x="80" y="400.0" text-anchor="end">15</text>
<line x1="95" y1="361.7" x2="955" y2="361.7" stroke="#d9e2f3" stroke-width="1"/>
<text class="axis" x="80" y="366.7" text-anchor="end">20</text>
<line x1="95" y1="328.3" x2="955" y2="328.3" stroke="#d9e2f3" stroke-width="1"/>
<text class="axis" x="80" y="333.3" text-anchor="end">25</text>
<line x1="95" y1="295.0" x2="955" y2="295.0" stroke="#d9e2f3" stroke-width="1"/>
<text class="axis" x="80" y="300.0" text-anchor="end">30</text>
<line x1="95" y1="261.7" x2="955" y2="261.7" stroke="#d9e2f3" stroke-width="1"/>
<text class="axis" x="80" y="266.7" text-anchor="end">35</text>
<line x1="95" y1="228.3" x2="955" y2="228.3" stroke="#d9e2f3" stroke-width="1"/>
<text class="axis" x="80" y="233.3" text-anchor="end">40</text>
<line x1="95" y1="195.0" x2="955" y2="195.0" stroke="#d9e2f3" stroke-width="1"/>
<text class="axis" x="80" y="200.0" text-anchor="end">45</text>
<line x1="95" y1="161.7" x2="955" y2="161.7" stroke="#d9e2f3" stroke-width="1"/>
<text class="axis" x="80" y="166.7" text-anchor="end">50</text>
<line x1="95" y1="128.3" x2="955" y2="128.3" stroke="#d9e2f3" stroke-width="1"/>
<text class="axis" x="80" y="133.3" text-anchor="end">55</text>
<line x1="95" y1="95.0" x2="955" y2="95.0" stroke="#d9e2f3" stroke-width="1"/>
<text class="axis" x="80" y="100.0" text-anchor="end">60</text>
<line x1="95" y1="95" x2="95" y2="495" stroke="#595959"/>
<line x1="95" y1="495" x2="955" y2="495" stroke="#595959"/>
<text class="axis" x="24" y="295.0" transform="rotate(-90 24 295.0)" text-anchor="middle">Number of respondents</text>
<rect x="125.0" y="295.0" width="177.5" height="200.0" rx="3" fill="#5B9BD5"/>
<text class="value" x="213.8" y="285.0" text-anchor="middle">30</text>
<text class="label" x="213.8" y="523" text-anchor="middle">25–34</text>
<rect x="332.5" y="121.7" width="177.5" height="373.3" rx="3" fill="#5B9BD5"/>
<text class="value" x="421.2" y="111.7" text-anchor="middle">56</text>
<text class="label" x="421.2" y="523" text-anchor="middle">35–44</text>
<rect x="540.0" y="408.3" width="177.5" height="86.7" rx="3" fill="#5B9BD5"/>
<text class="value" x="628.8" y="398.3" text-anchor="middle">13</text>
<text class="label" x="628.8" y="523" text-anchor="middle">45–54</text>
<rect x="747.5" y="468.3" width="177.5" height="26.7" rx="3" fill="#5B9BD5"/>
<text class="value" x="836.2" y="458.3" text-anchor="middle">4</text>
<text class="label" x="836.2" y="523" text-anchor="middle">55 and above</text>
<text class="source" x="95" y="615">Source: Primary data collected from eligible Union Bank of India employees (N = 105).</text>
</svg>