<svg xmlns="http://www.w3.org/2000/svg" width="1000" height="640" viewBox="0 0 1000 640">
<rect width="100%" height="100%" fill="white"/>
<style>text{font-family:Arial,sans-serif;fill:#1f1f1f}.title{font-size:22px;font-weight:700}.sub{font-size:14px;fill:#595959}.axis{font-size:14px}.label{font-size:14px}.value{font-size:15px;font-weight:700;fill:#17365d}.source{font-size:12px;fill:#595959}</style>
<text class="title" x="95" y="36">Figure 4.4: Construct Mean Scores</text>
<text class="sub" x="95" y="62">Mean score on the 1–5 response scale</text>
<line x1="95" y1="495.0" x2="955" y2="495.0" stroke="#d9e2f3" stroke-width="1"/>
<text class="axis" x="80" y="500.0" text-anchor="end">0</text>
<line x1="95" y1="415.0" x2="955" y2="415.0" stroke="#d9e2f3" stroke-width="1"/>
<text class="axis" x="80" y="420.0" text-anchor="end">1</text>
<line x1="95" y1="335.0" x2="955" y2="335.0" stroke="#d9e2f3" stroke-width="1"/>
<text class="axis" x="80" y="340.0" text-anchor="end">2</text>
<line x1="95" y1="255.0" x2="955" y2="255.0" stroke="#d9e2f3" stroke-width="1"/>
<text class="axis" x="80" y="260.0" text-anchor="end">3</text>
<line x1="95" y1="175.0" x2="955" y2="175.0" stroke="#d9e2f3" stroke-width="1"/>
<text class="axis" x="80" y="180.0" text-anchor="end">4</text>
<line x1="95" y1="95.0" x2="955" y2="95.0" stroke="#d9e2f3" stroke-width="1"/>
<text class="axis" x="80" y="100.0" text-anchor="end">5</text>
<line x1="95" y1="95" x2="95" y2="495" stroke="#595959"/>
<line x1="95" y1="495" x2="955" y2="495" stroke="#595959"/>
<text class="axis" x="24" y="295.0" transform="rotate(-90 24 295.0)" text-anchor="middle">Mean score</text>
<rect x="125.0" y="150.6" width="177.5" height="344.4" rx="3" fill="#4472C4"/>
<text class="value" x="213.8" y="140.6" text-anchor="middle">4.305</text>
<text class="label" x="213.8" y="523" text-anchor="middle">Learner Engagement</text>
<rect x="332.5" y="156.0" width="177.5" height="339.0" rx="3" fill="#4472C4"/>
<text class="value" x="421.2" y="146.0" text-anchor="middle">4.238</text>
<text class="label" x="421.2" y="523" text-anchor="middle">Training Effectiveness</text>
<rect x="540.0" y="161.8" width="177.5" height="333.2" rx="3" fill="#4472C4"/>
<text class="value" x="628.8" y="151.8" text-anchor="middle">4.165</text>
<text class="label" x="628.8" y="523" text-anchor="middle">Trainer Competence</text>
<rect x="747.5" y="163.6" width="177.5" height="331.4" rx="3" fill="#4472C4"/>
<text class="value" x="836.2" y="153.6" text-anchor="middle">4.142</text>
<text class="label" x="836.2" y="523" text-anchor="middle">Hybrid Learning</text>
<text class="source" x="95" y="615">Source: Primary data collected from eligible Union Bank of India employees (N = 105).</text>
</svg>